# xmcd CD database file
#
# Track frame offsets:
#	150
#	10939
#	21212
#	30960
#	51588
#	63730
#	76073
#	86223
#	99166
#	111335
#	121568
#	133418
#	147020
#	177979
#	189532
#	206408
#
# Disc length: 2898 seconds
#
# Revision: 2
# Processed by: cddbd v1.5.2PL0 Copyright (c) Steve Scherf et al.
# Submitted via: CDex 1.51
#
DISCID=d60b5010
DTITLE=Dave Brubeck - Take five (Quadromania) CD 1
DYEAR=2005
DGENRE=Jazz
TTITLE0=Let's Fall In Love
TTITLE1=I Hear A Rhapsody
TTITLE2=Laura
TTITLE3=Serenade Suite
TTITLE4=Ipca
TTITLE5=Fugue On Bop Themes
TTITLE6=Prelude
TTITLE7=September In The Rain
TTITLE8=What Is This Thing Called Love
TTITLE9=Schizophrenic Scherzo
TTITLE10=Love Walked In
TTITLE11=The Way You Look Tonight
TTITLE12=How High The Moon
TTITLE13=Back Home Again In Indiana
TTITLE14=Body And Soul
TTITLE15=Undecided
EXTD=YEAR: 2005
EXTT0=
EXTT1=
EXTT2=
EXTT3=
EXTT4=
EXTT5=
EXTT6=
EXTT7=
EXTT8=
EXTT9=
EXTT10=
EXTT11=
EXTT12=
EXTT13=
EXTT14=
EXTT15=
PLAYORDER=
